PathFileType	4	(X/Y/Z)	C:/Users/beibeiliu/ov580/test_trc/User3\sequence.48_training_dense_right.trc
DataRate	CameraRate	NumFrames	NumMarkers	Units	OrigDataRate	OrigDataStartFrame	OrigNumFrames
120	120	25	19	mm	120	162	188
Frame#	Time	ThumbCMC			ThumbMCP			ThumbIP			ThumbTip			IndexMCP			IndexPIP			IndexTip			MiddleMCP			MiddlePIP			MiddleTip			RingMCP			RingPIP			RingTip			PinkyMCP			PinkyPIP			PinkyTip			BackHand1			BackHand2			BackHand3	
		X0	Y0	Z0	X1	Y1	Z1	X2	Y2	Z2	X3	Y3	Z3	X4	Y4	Z4	X5	Y5	Z5	X6	Y6	Z6	X7	Y7	Z7	X8	Y8	Z8	X9	Y9	Z9	X10	Y10	Z10	X11	Y11	Z11	X12	Y12	Z12	X13	Y13	Z13	X14	Y14	Z14	X15	Y15	Z15	X16	Y16	Z16	X17	Y17	Z17	X18	Y18	Z18	
161	1.34167	112.049	44.1284	78.9728	92.917	47.262	47.0843	89.5135	48.7872	14.3875	99.9111	40.476	-4.92742	129.742	90.2759	19.1358	114.975	82.926	-10.1709	100.597	50.5697	-3.86402	144.454	83.0372	6.12569	132.456	70.3542	-19.3106	113.304	37.6481	-7.29053	156.886	58.6481	3.89134	138.313	41.2077	-14.031	125.994	19.4415	4.35957	165.089	38.0427	7.65472	147.906	21.0164	-3.48622	135.21	4.42921	17.7133	173.577	54.086	59.2462	176.123	34.5665	87.7395	147.922	61.6013	83.2352	
162	1.35	110.97	42.3189	69.1028	90.4829	37.9389	40.1027	86.6508	34.8845	10.8155	94.2158	27.2793	-11.7063	128.361	84.6598	10.7577	119.291	86.8971	-20.6153	101.292	68.569	-37.209	147.1	81.1094	-2.23448	135.713	78.5122	-31.4283	116.109	46.4397	-47.8083	157.049	58.933	-4.11093	145.193	46.2291	-28.1876	126.933	16.5806	-23.9803	172.723	35.1126	2.40224	153.704	20.951	-14.0841	134.546	0.205144	-5.10776	174.8	54.5445	49.5132	177.727	40.6528	79.5641	142.117	63.6454	70.3164	
163	1.35833	109.559	40.4618	69.1375	93.6575	32.8498	36.5899	87.4809	25.2772	8.2205	87.6711	16.1946	-12.687	125.774	78.3422	-1.58138	120.788	78.2806	-26.5591	110.722	69.9848	-54.1864	146.179	69.583	-7.93137	141.198	64.4389	-37.8755	123.094	51.9187	-62.9893	158.594	44.3162	-9.05661	148.11	29.4976	-31.8684	131.83	7.17966	-40.1135	168.3	22.6552	0.417139	152.754	9.19541	-12.7737	132.753	-10.5725	-17.4279	173.671	51.5301	47.7609	177.596	41.6367	75.1565	144.692	59.7658	68.5156	
164	1.36667	114.581	37.2237	68.3475	94.994	27.7823	40.6391	85.1018	20.45	11.0662	82.2776	10.5438	-4.95747	132.695	64.1735	-3.14375	122.228	67.0251	-30.5586	117.453	65.5927	-51.8221	145.309	50.6283	-13.671	136.569	43.9226	-38.6139	124.929	32.8549	-67.3457	155.478	24.8859	-8.18122	144.123	9.35839	-26.0649	127.66	-10.1336	-39.9944	167.951	7.38612	3.78126	155.787	-8.92679	-6.9975	135.65	-23.4026	-18.9826	178.074	41.4791	45.6966	179.958	33.3163	78.5192	148.105	54.6799	66.3594	
165	1.375	115.898	34.2671	71.9452	95.2576	25.4714	43.91	80.6784	20.4997	14.3598	77.0748	11.4497	-3.77637	127.95	55.9046	-2.31838	121.513	56.9289	-30.4859	116.471	57.3192	-50.993	147.995	35.2967	-11.0521	135.26	23.6487	-37.8959	123.795	11.2858	-62.3783	157.934	13.6588	-5.30538	144.578	2.53968	-20.9112	134.225	-19.3606	-38.402	167.022	2.02433	3.65415	160.548	-10.2825	-6.201	153.314	-26.658	-24.4961	175.999	38.4016	49.0245	180.408	31.3755	75.8146	148.071	51.3318	64.3479	
166	1.38333	114.741	31.0777	69.1106	95.9266	24.4875	45.479	78.7726	20.6495	24.2076	72.6139	15.1809	4.50065	125.26	48.994	-4.03631	115.758	47.2179	-29.9603	108.135	47.1896	-51.25	139.03	32.796	-13.2253	127.928	18.4264	-34.0959	115.356	-0.447232	-58.2862	158.715	19.4146	-6.04529	152.437	4.10006	-26.4314	144.187	-9.66433	-45.3524	176.321	12.1527	6.77485	176.953	-0.883212	-12.1604	173.06	-7.54182	-31.8795	171.504	41.1248	44.8965	178.09	35.7962	73.7841	144.499	52.0843	64.2058	
167	1.39167	112.397	27.87	72.9291	95.3811	22.9725	49.9199	76.4016	21.5838	21.8943	68.6772	14.6692	7.92775	112.821	45.5882	-4.57383	105.432	38.923	-25.071	99.7524	31.973	-52.3882	132.988	35.1758	-12.4045	126.463	19.4303	-31.6424	116.98	-0.612806	-58.383	159.387	31.1595	-8.70504	153.485	23.0543	-33.3809	152.309	12.8603	-55.4591	183.399	25.3437	4.78758	185.348	22.3602	-14.831	192.327	20.0984	-37.0802	169.407	46.3932	43.4037	178.073	43.3412	73.8854	142.14	53.0135	62.9223	
168	1.4	113.852	26.0866	74.61	98.4827	21.3685	48.7089	81.2918	18.3151	27.0391	69.6046	14.0127	9.14305	111.002	40.7489	-2.4954	103.847	27.6696	-28.3963	96.3582	16.4107	-47.7302	132.176	39.5269	-12.4792	124.945	25.3255	-33.7851	118.395	8.10046	-59.6857	160.794	40.5911	-11.2786	156.633	37.6483	-38.079	151.228	34.0308	-61.9692	186.545	37.6035	1.43044	187.865	40.003	-17.3285	198.113	46.4912	-34.107	168.934	52.5904	43.3279	174.561	50.6483	68.9072	141.512	52.6074	63.5384	
169	1.40833	118.335	24.0565	72.8663	98.302	15.9625	50.334	82.9391	9.53382	28.5764	67.8428	1.49616	10.5802	113.71	30.8602	-9.53445	105.288	15.9703	-24.661	99.8185	-0.967524	-42.4178	132.791	41.9909	-14.8075	124.955	30.5129	-41.1109	119.27	19.7397	-67.9223	159.041	45.7299	-10.8616	156.141	47.0908	-37.3909	152.646	47.9774	-62.8181	186.07	45.221	2.07114	190.383	49.0423	-12.2255	194.768	62.185	-34.5913	168.277	56.5817	39.3908	172.652	52.9201	71.7697	139.736	51.5388	61.6659	
170	1.41667	121.422	18.7173	67.6064	102.084	3.00212	50.277	86.634	-8.39315	25.3719	81.8637	-18.4982	11.5203	116.242	21.7002	-6.91233	112.266	4.03476	-24.6984	109.89	-18.5248	-46.1047	137.51	39.6314	-17.5669	128.074	30.8432	-44.444	124.407	25.3093	-73.2333	157.499	45.1037	-10.8296	157.643	47.1687	-32.6147	156.334	51.4207	-61.5248	183.838	46.5351	4.27158	188.128	54.3658	-16.3254	195.833	66.011	-35.4095	166.019	54.5898	37.1005	170.136	57.7532	67.892	139.247	49.0417	59.5259	
171	1.425	119.014	14.3577	66.9465	108.999	-2.82265	49.5537	97.206	-19.1172	24.974	89.9609	-33.0579	10.926	118.362	17.1792	-10.263	115.37	1.16602	-30.3143	112.915	-16.586	-49.8178	138.654	35.6399	-20.955	135.507	30.343	-45.973	128.831	27.2349	-74.3389	164.215	41.2143	-10.4496	159.777	40.7967	-37.2586	162.382	42.5143	-64.8068	185.976	43.9696	2.2121	191.179	46.8502	-13.5983	197.328	55.6828	-38.6866	164.079	52.4466	38.14	170.425	57.4893	64.3682	133.925	47.7114	57.4827	
172	1.43333	119.092	14.8288	64.452	107.628	-6.9589	47.649	95.1977	-27.4778	25.964	93.2262	-41.5828	8.8358	117.117	21.8171	-9.93482	110.033	9.07027	-35.134	107.47	-1.19911	-59.364	137.362	31.7662	-20.2892	132.559	25.0086	-47.3872	132.648	20.8058	-74.0445	163.766	31.5249	-14.66	166.274	27.0645	-35.8758	164.97	17.8045	-62.5982	190.715	34.1082	5.3371	196.773	34.3113	-18.2495	199.827	31.8856	-41.8577	165.149	49.7631	35.0155	168.465	55.4724	62.9704	137.373	48.7095	53.8344	
173	1.44167	119.405	14.5001	64.7553	109.143	-8.96703	46.8742	96.4128	-30.3478	26.0715	94.951	-47.4258	8.84029	114.527	25.1503	-12.6052	109.631	20.4363	-35.01	106.183	16.4921	-60.3499	141.191	30.7279	-21.8769	134.906	23.3702	-46.4261	133.296	16.4855	-76.4501	164.715	27.0827	-13.5925	165.177	16.6901	-37.339	169.788	1.14123	-62.2072	189.951	29.7683	3.50691	193.138	25.785	-18.3751	199.505	18.1484	-42.5447	164.615	47.6368	37.0344	169.124	56.4876	64.559	131.781	46.5744	52.2464	
174	1.45	118.738	13.1771	66.0911	109.2	-11.1182	43.4554	100.538	-30.1083	27.6938	96.4987	-48.5878	9.468	114.936	29.2992	-11.2928	106.175	25.9426	-32.9655	100.533	26.9344	-59.4332	144.333	34.0152	-19.5544	140.081	27.2417	-43.7641	133.387	22.3155	-75.2956	167.511	27.1432	-13.311	170.973	11.9634	-39.9662	176.751	-6.06812	-58.7143	189.318	27.8733	0.686385	195.174	19.0748	-19.7802	197.946	1.1905	-40.56	165.618	50.8417	36.3243	172.948	54.3809	66.2934	135.833	46.1469	54.7874	
175	1.45833	119.703	13.7139	63.2735	109.819	-9.51256	41.0895	99.0109	-28.0723	21.4728	102.369	-41.6575	5.09094	117.409	34.7143	-9.41842	106.227	33.172	-33.2991	95.7883	31.4841	-58.7358	143.824	40.1641	-18.5115	141.059	36.3662	-49.6591	143.524	30.5385	-75.4074	169.712	28.1033	-15.1661	171.695	11.1971	-37.7213	175.568	-11.1584	-49.5096	191.312	27.3567	-3.35044	192.743	12.745	-21.7561	196.873	-9.68295	-33.626	170.873	52.4142	39.5126	171.828	51.8188	68.6651	138.417	49.6107	53.5786	
176	1.46667	122.98	14.4403	63.187	111.913	-5.95088	38.6498	101.675	-23.7096	14.7554	109.86	-34.4595	-4.72089	120.124	41.3036	-10.6846	104.845	38.4356	-33.6765	97.2087	31.287	-56.6439	148.431	47.1	-19.9749	144.902	42.3168	-48.9138	147.471	28.039	-77.3562	167.133	31.4202	-16.2261	169.578	13.8531	-35.4884	173.177	-20.9882	-39.0758	190.503	27.4069	-2.50065	195.12	8.55006	-19.7372	189.528	-18.4587	-20.8929	173.039	50.3668	36.1641	176.623	51.0058	70.253	141.7	47.0991	55.4402	
177	1.475	122.319	14.923	64.1784	110.849	-4.04025	37.0021	109.177	-14.4405	7.6222	114.892	-27.4928	-13.308	116.201	48.4493	-6.86366	107.605	44.5295	-36.9559	101.226	28.3334	-56.7517	149.499	53.6397	-13.7491	142.166	46.7995	-49.0096	144.634	18.1528	-72.554	171.21	35.3653	-14.1817	169.914	12.8809	-34.6074	166.104	-19.1409	-24.503	190.971	27.385	-2.10183	185.303	8.5203	-19.6934	173.989	-18.228	-7.06827	173.75	52.0075	42.7207	180.526	49.5784	71.5206	142.342	50.0219	59.7743	
178	1.48333	124.371	18.409	63.467	111.283	1.94254	30.7841	106.072	-9.68799	3.77472	121.289	-16.3061	-18.3265	118.293	53.1701	-3.39872	107.658	50.2419	-34.5883	103.071	24.713	-54.008	147.114	57.3186	-13.661	141.27	50.5329	-45.6984	141.245	11.393	-61.0288	165.142	37.4936	-16.3403	167.562	13.1738	-32.3909	162.533	-14.6699	-15.2138	184.705	29.3151	-2.24984	179.232	7.02205	-18.6124	171.354	-16.3543	-1.67007	173.479	51.5778	40.4953	181.664	49.1699	68.9286	146.017	50.191	58.1146	
179	1.49167	121.191	22.0839	59.4038	110.998	6.70142	32.0403	107.367	-3.61606	6.60974	119.845	-10.6269	-16.5802	120.818	58.3222	-10.17	105.329	51.1087	-35.7501	106.598	29.2566	-52.8915	147.36	59.5587	-14.1742	144.14	51.3464	-46.3646	140.421	15.203	-59.1761	168.487	38.9798	-16.5257	160.997	13.7781	-34.2385	156.41	-13.6844	-15.0237	182.383	28.008	-7.50438	177.072	7.75418	-20.158	166.687	-16.1391	-1.39331	176.23	51.6802	39.9183	182.401	47.0076	69.5196	144.969	53.1095	58.3065	
180	1.5	119.898	24.2541	58.1035	104.335	7.96506	34.0784	98.6999	-2.19422	4.37863	102.488	-14.401	-18.538	122.917	55.4013	-9.87112	110.105	52.4477	-42.2591	101.286	32.2248	-61.0013	147.525	57.3652	-20.4346	141.572	50.4702	-50.8673	139.248	18.8525	-70.2083	164.292	39.5468	-17.1711	163.878	14.8038	-41.4204	156.408	-12.3304	-33.6235	185.174	27.5861	-4.80058	180.601	7.22846	-25.5215	168.538	-17.8654	-14.0886	176.288	51.9638	33.119	180.434	48.8764	68.2664	144.069	54.8152	54.8805	
181	1.50833	111.801	23.918	52.3423	95.8223	7.23555	30.115	85.418	-5.65848	8.73419	84.6556	-18.0126	-13.6544	115.916	49.9302	-16.9165	105.572	48.4227	-47.019	98.9642	38.3946	-68.6777	146.421	51.8163	-23.6702	141.809	48.7529	-55.9688	135.035	29.2606	-85.7291	168.046	38.0538	-19.7008	167.524	22.1894	-48.211	157.207	-4.68819	-57.3061	187.175	24.5782	-9.27932	184.968	8.32032	-29.9017	176.925	-14.9671	-35.4867	166.131	49.8066	32.8923	171.227	49.6308	60.6287	138.676	51.0392	48.486	
182	1.51667	101.709	24.5487	51.1412	88.2349	6.88441	33.1349	70.2733	-7.65974	6.83069	64.3749	-21.0176	-10.2208	107.896	46.0304	-24.8696	101.228	45.0007	-49.2602	95.8467	41.4603	-71.1991	138.453	48.0939	-27.0734	138.885	47.2991	-55.7618	130.969	41.3406	-91.4999	159.021	38.9427	-20.8753	164.592	31.8922	-51.9211	164.636	11.4255	-73.9725	183.034	24.5854	-11.5899	185.521	11.4566	-31.8215	186.353	-6.44122	-46.5106	160.254	50.4935	25.0393	166.834	48.8867	58.4469	129.09	53.7116	43.2829	
183	1.525	100.19	28.0447	51.1626	81.8979	9.09112	32.2513	62.7284	-4.09271	14.2597	52.5731	-18.0148	-2.36814	108.038	46.0141	-21.2404	94.2189	44.9477	-46.1189	86.8337	45.1986	-67.9372	138.33	48.4784	-27.6482	135.75	50.4878	-57.4624	133.375	48.2808	-89.2332	157.812	38.7947	-25.0921	160.224	33.8663	-51.2009	161.017	24.0245	-74.674	179.422	19.6887	-6.55596	184.193	8.07779	-27.597	185.384	-7.1775	-48.6352	157.561	50.5303	26.2097	162.024	50.6217	58.857	124.734	55.0072	41.3176	
184	1.53333	96.9956	29.1281	53.142	82.7593	10.2148	33.9575	62.8313	-3.81312	16.7643	54.1523	-16.4091	1.93341	104.198	45.9111	-18.7225	94.2593	46.1014	-44.613	88.5886	45.1332	-65.3485	138.643	47.9214	-24.8319	138.484	48.9298	-49.7921	134.724	50.8546	-85.0201	155.533	32.2279	-17.9633	156.491	28.4703	-45.5187	160.846	17.8443	-70.6388	173.042	13.5404	-3.27788	181.813	-0.97875	-21.4574	184.899	-14.357	-38.807	156.319	45.4144	31.0083	159.315	48.9796	59.3955	126.909	52.8647	45.8766	
185	1.54167	100.487	27.0451	59.6095	81.9522	8.31484	41.9516	68.5999	-5.65991	20.5541	56.5319	-19.1597	4.16299	106.208	43.9092	-16.4641	96.2053	44.6267	-37.9157	89.003	41.2125	-66.3437	136.318	46.7881	-22.1542	138.95	46.9283	-49.8866	135.716	46.5594	-78.0475	157.492	27.7938	-18.1282	161.043	23.2322	-37.8806	158.947	14.7785	-65.385	172.54	10.2286	1.00839	178.827	-4.05025	-19.791	184.084	-17.1663	-34.2299	157.705	42.1115	32.1368	162.933	43.7674	67.0818	127.827	51.7417	51.3633	
